<?xml version="1.0" encoding="utf-8"?>
<!-- Generator: Adobe Illustrator 25.3.1, SVG Export Plug-In . SVG Version: 6.00 Build 0)  -->
<svg fill="#2563eb" version="1.1" id="Layer_1" xmlns="http://www.w3.org/2000/svg" xmlns:xlink="http://www.w3.org/1999/xlink" x="0px" y="0px"
	 viewBox="0 0 28.9 32" style="enable-background:new 0 0 28.9 32;" xml:space="preserve">
<style type="text/css">
	.st0{clip-path:url(#SVGID_2_);}
</style>
<g>
	<defs>
		<rect id="SVGID_1_" width="114.3" height="32"/>
	</defs>
	<clipPath id="SVGID_2_">
		<use xlink:href="#SVGID_1_"  style="overflow:visible;"/>
	</clipPath>
	<g class="st0">
		<path d="M16.8,11.7l3.8,3.2C20.7,15,20.9,15,21,15c0.1,0,0.2,0,0.3-0.1c0.2-0.1,0.3-0.4,0.3-0.6l-1.1-6.5c0-0.2-0.2-0.4-0.4-0.5
			c-0.2-0.1-0.4,0-0.6,0.2l-2.8,3.3C16.5,11.1,16.5,11.5,16.8,11.7z" />
		<path d="M16.4,15.8c0-0.1-0.1-0.3-0.2-0.4l-1.5-1.3C14.6,14,14.4,14,14.3,14c-0.1,0-0.3,0.1-0.4,0.2l-1.3,1.5
			c-0.2,0.2-0.2,0.6,0.1,0.8l1.5,1.3c0.1,0.1,0.2,0.1,0.4,0.1c0.2,0,0.3-0.1,0.4-0.2l1.3-1.5C16.4,16.1,16.5,16,16.4,15.8z"/>
		<path d="M2.2,7.5c0.1,0,0.1,0,0.2,0l9-1.2c0.3,0,0.5-0.3,0.5-0.6l-0.1-3.8c0-0.2-0.1-0.4-0.3-0.5c-0.2-0.1-0.4-0.1-0.6,0L1.8,6.7
			C1.6,6.8,1.5,7,1.6,7.2C1.6,7.4,1.8,7.5,2.2,7.5z"/>
		<path d="M26.5,24.6l-9,1.2c-0.3,0-0.5,0.3-0.5,0.6l0.1,3.8c0,0.2,0.1,0.4,0.3,0.5c0.1,0,0.2,0.1,0.3,0.1c0.1,0,0.2,0,0.3-0.1
			l9.1-5.2c0.2-0.1,0.3-0.3,0.2-0.5C27.2,24.7,27,24.5,26.5,24.6z"/>
		<path d="M1,11c-0.2-0.1-0.4-0.2-0.6-0.1C0.1,11,0,11.2,0,11.4v3.9c0,0.3,0.3,0.6,0.6,0.6h5.2c0.1,0,0.3-0.1,0.3-0.2
			c0-0.1,0-0.3-0.1-0.4L1,11z"/>
		<path d="M12.1,20.3l-3.8-3.2c-0.2-0.1-0.4-0.2-0.7-0.1c-0.2,0.1-0.3,0.4-0.3,0.6l1.1,7c0,0.1,0.1,0.3,0.3,0.3c0,0,0.1,0,0.1,0
			c0.1,0,0.2,0,0.3-0.1l3.1-3.7C12.4,20.9,12.4,20.5,12.1,20.3z"/>
		<path d="M5.8,10.4c-0.1,0.2,0,0.4,0.2,0.6l3.3,2.8c0.1,0.1,0.2,0.1,0.4,0.1c0.2,0,0.3-0.1,0.4-0.2l3.2-3.8
			c0.1-0.2,0.2-0.4,0.1-0.7C13.3,9,13,8.9,12.8,8.9L6.2,10C6,10,5.8,10.2,5.8,10.4z"/>
		<path d="M14.8,7.7c0,0,0.1,0,0.1,0c0.1,0,0.2,0,0.3-0.1l4-4.7c0.1-0.1,0.1-0.3,0.1-0.5c0-0.2-0.1-0.3-0.3-0.4l-3-1.7
			c-0.2-0.1-0.5-0.2-0.7-0.3c-0.2,0-0.4,0-0.5,0.1c-0.1,0.1-0.2,0.3-0.2,0.4v6.8C14.6,7.5,14.7,7.7,14.8,7.7z"/>
		<path d="M4.1,18.6l-3.6,0.1C0.3,18.7,0,19,0,19.3v3.4c0,1,0.5,1.9,1.4,2.4l3.4,2c0.1,0,0.2,0.1,0.3,0.1s0.2,0,0.3-0.1
			c0.2-0.1,0.3-0.3,0.3-0.5l-1-7.4C4.7,18.8,4.4,18.6,4.1,18.6z"/>
		<path d="M27.5,6.9l-3.4-2c-0.2-0.1-0.4-0.1-0.6,0c-0.2,0.1-0.3,0.3-0.3,0.5l1,7.4c0,0.3,0.3,0.5,0.6,0.5h0l3.6-0.1
			c0.3,0,0.5-0.3,0.5-0.6V9.3C28.9,8.3,28.3,7.4,27.5,6.9z"/>
		<path d="M23.1,21.6c0.1-0.2,0-0.4-0.2-0.6l-3.3-2.8c-0.2-0.2-0.6-0.2-0.8,0.1l-3.2,3.8c-0.1,0.2-0.2,0.4-0.1,0.7
			c0.1,0.2,0.3,0.3,0.5,0.3c0,0,0.1,0,0.1,0l6.6-1.1C22.9,22,23,21.9,23.1,21.6z"/>
		<path d="M14.1,24.3c-0.1,0-0.3,0-0.4,0.1l-4,4.7c-0.1,0.1-0.1,0.3-0.1,0.5c0,0.2,0.1,0.3,0.3,0.4l3,1.7c0.2,0.1,0.5,0.2,0.7,0.3
			c0,0,0.1,0,0.1,0c0.1,0,0.3,0,0.4-0.1c0.1-0.1,0.2-0.3,0.2-0.5v-6.8C14.3,24.5,14.2,24.3,14.1,24.3z"/>
		<path d="M28.3,16.1h-4.6c-0.3,0-0.5,0.1-0.5,0.4c-0.1,0.2,0,0.5,0.2,0.6l4.6,3.9c0.1,0.1,0.2,0.1,0.4,0.1c0.1,0,0.2,0,0.3-0.1
			c0.2-0.1,0.3-0.3,0.3-0.5v-3.8C28.9,16.4,28.6,16.1,28.3,16.1z"/>
	</g>
</g>
</svg>
