<svg viewBox="0 0 115 32" class="sc-csmVar iFabjT desktop-icon" color="text" xmlns="http://www.w3.org/2000/svg">
<g clip-path="url(#clip0_2555_4532)">
<path d="M59.241 17.4333L60.8909 17.4544C61.1024 17.4544 61.2928 17.5598 61.3986 17.7496L65.0791 23.8629C65.1425 23.9683 65.2483 24.0315 65.3752 24.0315H69.5845C69.8595 24.0315 70.0287 23.7153 69.8806 23.4834L65.1002 16.0842C64.9733 15.8734 64.9733 15.6204 65.1002 15.4096L69.8595 8.51635C70.0287 8.28447 69.8595 7.96826 69.5633 7.96826H65.3752C65.2483 7.96826 65.1425 8.0315 65.0791 8.11582L61.3986 13.5335C61.2928 13.7021 61.1024 13.8075 60.8909 13.8075H59.241C58.9237 13.8075 58.6699 14.0605 58.6699 14.3767V16.8642C58.6699 17.1804 58.9237 17.4333 59.241 17.4333Z" fill="currentColor"></path><path d="M76.2475 17.4333L77.8974 17.4544C78.1089 17.4544 78.2992 17.5598 78.405 17.7496L82.0855 23.8629C82.149 23.9683 82.2547 24.0315 82.3816 24.0315H86.5909C86.8659 24.0315 87.0351 23.7153 86.8871 23.4834L82.1278 16.1053C82.0009 15.8945 82.0009 15.6415 82.1278 15.4307L86.8659 8.51635C87.0351 8.28447 86.8659 7.96826 86.5698 7.96826H82.3816C82.2547 7.96826 82.149 8.0315 82.0855 8.11582L78.4262 13.5124C78.3204 13.681 78.13 13.7864 77.9185 13.7864H76.2686C75.9513 13.7864 75.6975 14.0394 75.6975 14.3556V16.8642C75.6764 17.1804 75.9302 17.4333 76.2475 17.4333Z" fill="currentColor"></path><path d="M35.3599 16C35.3599 11.278 38.4269 7.56787 42.8689 7.56787C45.1534 7.56787 46.6975 8.39001 47.7128 9.80239L47.7762 8.49541C47.7762 8.20028 48.0089 7.9684 48.3051 7.9684H51.8375C52.1336 7.9684 52.3663 8.20028 52.3663 8.49541V23.5468C52.3663 23.8419 52.1125 24.0738 51.8163 24.0738H48.3051C48.0089 24.0738 47.7762 23.8419 47.7762 23.5468L47.7128 22.1976C46.634 23.61 45.0688 24.4743 42.8689 24.4743C38.4269 24.4532 35.3599 20.7642 35.3599 16ZM44.0323 20.0685C46.3379 20.0685 47.9243 18.4453 47.9243 15.9579C47.9243 13.5125 46.3379 11.9315 44.0323 11.9315C41.769 11.9315 40.0557 13.5547 40.0557 16C40.0557 18.4875 41.769 20.0685 44.0323 20.0685Z" fill="currentColor"></path><path d="M85.2583 16C85.2583 11.278 88.3254 7.56787 92.7674 7.56787C95.0518 7.56787 96.5959 8.39001 97.6112 9.80239L97.6747 8.49541C97.6747 8.20028 97.9074 7.9684 98.2035 7.9684H101.736C102.032 7.9684 102.265 8.20028 102.265 8.49541V23.5468C102.265 23.8419 102.011 24.0738 101.715 24.0738H98.2035C97.9074 24.0738 97.6747 23.8419 97.6747 23.5468L97.6112 22.1976C96.5325 23.61 94.9672 24.4743 92.7674 24.4743C88.3254 24.4532 85.2583 20.7642 85.2583 16ZM93.9307 20.0685C96.2363 20.0685 97.8228 18.4453 97.8228 15.9579C97.8228 13.5125 96.2363 11.9315 93.9307 11.9315C91.6674 11.9315 89.9541 13.5547 89.9541 16C89.9541 18.4875 91.6674 20.0685 93.9307 20.0685Z" fill="currentColor"></path><path d="M74.5553 24.0315H70.8325C70.5787 24.0315 70.3672 23.8207 70.3672 23.5677V8.43203C70.3672 8.17907 70.5787 7.96826 70.8325 7.96826H74.5553C74.8092 7.96826 75.0207 8.17907 75.0207 8.43203V23.5677C75.0207 23.8207 74.8092 24.0315 74.5553 24.0315Z" fill="currentColor"></path><path d="M57.5485 24.0315H53.8257C53.5719 24.0315 53.3604 23.8207 53.3604 23.5677V8.43203C53.3604 8.17907 53.5719 7.96826 53.8257 7.96826H57.5485C57.8023 7.96826 58.0139 8.17907 58.0139 8.43203V23.5677C58.0139 23.8207 57.8023 24.0315 57.5485 24.0315Z" fill="currentColor"></path><path d="M16.7737 11.6784L20.6235 14.9037C20.7292 14.9881 20.8561 15.0302 20.983 15.0302C21.0888 15.0302 21.1734 15.0091 21.258 14.9459C21.4695 14.8194 21.5753 14.5875 21.533 14.3556L20.4754 7.82073C20.4331 7.58885 20.285 7.42021 20.0523 7.35697C19.8408 7.29373 19.6081 7.35697 19.4601 7.54669L16.6891 10.8563C16.4988 11.1093 16.5199 11.4676 16.7737 11.6784Z" fill="currentColor"></path><path d="M16.4353 15.8314C16.4142 15.6838 16.3507 15.5362 16.2238 15.4519L14.6797 14.1449C14.5528 14.0395 14.4047 13.9974 14.2566 14.0185C14.1086 14.0395 13.9605 14.1028 13.8759 14.2293L12.5644 15.7681C12.3529 16 12.3952 16.3795 12.6279 16.5692L14.172 17.8762C14.2778 17.9605 14.4047 18.0026 14.5316 18.0026C14.7008 18.0026 14.8489 17.9394 14.9758 17.7918L16.2872 16.253C16.393 16.1265 16.4565 15.9789 16.4353 15.8314Z" fill="currentColor"></path><path d="M2.17853 7.52577C2.24198 7.52577 2.28429 7.52577 2.34774 7.50469L11.3163 6.30311C11.6124 6.26095 11.824 6.00798 11.824 5.71286L11.7182 1.91839C11.7182 1.70759 11.6124 1.53895 11.4221 1.43354C11.2528 1.32814 11.0202 1.32814 10.851 1.43354L1.79779 6.66147C1.60742 6.76688 1.52281 6.97768 1.58626 7.18848C1.64972 7.35713 1.81894 7.52577 2.17853 7.52577Z" fill="currentColor"></path><path d="M26.4826 24.5798L17.514 25.7814C17.2179 25.8235 17.0063 26.0765 17.0063 26.3716L17.1121 30.1661C17.1121 30.3769 17.239 30.5455 17.4082 30.6509C17.4929 30.6931 17.5986 30.7142 17.6832 30.7142C17.789 30.7142 17.8736 30.6931 17.9794 30.6299L27.0325 25.423C27.2229 25.3176 27.3075 25.1068 27.244 24.896C27.2017 24.7063 26.9691 24.5165 26.4826 24.5798Z" fill="currentColor"></path><path d="M0.951852 10.9828C0.782634 10.8352 0.549959 10.8141 0.338436 10.8984C0.126914 11.0038 0 11.1936 0 11.4254V15.2832C0 15.5994 0.253827 15.8523 0.571111 15.8523H5.79572C5.94379 15.8523 6.0707 15.768 6.13416 15.6204C6.17646 15.4729 6.13416 15.3253 6.0284 15.241L0.951852 10.9828Z" fill="currentColor"></path><path d="M12.099 20.3214L8.27046 17.1171C8.08009 16.9696 7.82626 16.9274 7.61474 17.0539C7.40322 17.1804 7.29745 17.4123 7.33976 17.6441L8.46083 24.6639C8.48198 24.7904 8.58774 24.9169 8.71466 24.938C8.73581 24.938 8.77811 24.959 8.79927 24.959C8.90503 24.959 9.01079 24.9169 9.07425 24.8326L12.1836 21.1435C12.374 20.8905 12.3528 20.5322 12.099 20.3214Z" fill="currentColor"></path><path d="M5.77477 10.3714C5.71132 10.5822 5.77477 10.8141 5.96514 10.9617L9.28605 13.7443C9.39181 13.8286 9.51872 13.8708 9.64564 13.8708C9.81486 13.8708 9.96292 13.8075 10.0898 13.66L13.3261 9.84441C13.4742 9.65469 13.5165 9.40172 13.3896 9.19092C13.2627 8.98012 13.03 8.87472 12.7973 8.91688L6.24012 9.97089C6.00745 9.99197 5.83823 10.1606 5.77477 10.3714Z" fill="currentColor"></path><path d="M14.8065 7.71553C14.8488 7.73661 14.8911 7.73661 14.9334 7.73661C15.0392 7.73661 15.1238 7.69445 15.2084 7.61013L19.185 2.88813C19.2908 2.76165 19.3331 2.593 19.312 2.42436C19.2908 2.25572 19.185 2.10815 19.037 2.02383L16.0757 0.337403C15.843 0.210921 15.5892 0.105519 15.3353 0.0211978C15.1661 -0.0209629 14.9757 0.000117462 14.8277 0.1266C14.6796 0.232002 14.595 0.400644 14.595 0.569287V7.37825C14.5738 7.54689 14.6796 7.67337 14.8065 7.71553Z" fill="currentColor"></path><path d="M4.12469 18.5928L0.549959 18.6982C0.253827 18.7193 0 18.9722 0 19.2673V22.6824C0 23.6731 0.528807 24.6007 1.39605 25.1066L4.84387 27.0882C4.92848 27.1303 5.03424 27.1725 5.14 27.1725C5.24576 27.1725 5.37268 27.1303 5.45729 27.0671C5.64766 26.9406 5.73227 26.7298 5.71111 26.519L4.6958 19.0776C4.67465 18.8036 4.42082 18.5928 4.12469 18.5928Z" fill="currentColor"></path><path d="M27.4769 6.89336L24.0291 4.9118C23.8387 4.8064 23.6061 4.8064 23.4157 4.93288C23.2253 5.05936 23.1407 5.27017 23.1619 5.48097L24.1772 12.9223C24.2195 13.2175 24.4522 13.4283 24.7483 13.4283H24.7694L28.323 13.3229C28.6403 13.3229 28.873 13.0699 28.873 12.7537V9.3176C28.873 8.30574 28.323 7.3782 27.4769 6.89336Z" fill="currentColor"></path><path d="M23.0982 21.6285C23.1616 21.4177 23.0982 21.1858 22.9078 21.0382L19.5869 18.2556C19.3542 18.0448 18.9735 18.087 18.7831 18.3189L15.5468 22.1555C15.3987 22.3452 15.3564 22.5982 15.4834 22.809C15.5891 22.9987 15.7795 23.1041 15.991 23.1041C16.0122 23.1041 16.0545 23.1041 16.0756 23.1041L22.6328 22.0501C22.8655 22.0079 23.0347 21.8604 23.0982 21.6285Z" fill="currentColor"></path><path d="M14.0662 24.2845C13.9182 24.2423 13.7701 24.2845 13.6855 24.3899L9.70886 29.1119C9.6031 29.2384 9.5608 29.407 9.58195 29.5756C9.6031 29.7443 9.70886 29.8918 9.85693 29.9762L12.8182 31.6837C13.0509 31.8102 13.3047 31.9156 13.5586 31.9999C13.6009 32.021 13.6643 32.021 13.7066 32.021C13.8336 32.021 13.9605 31.9788 14.0662 31.8945C14.2143 31.7891 14.2989 31.6204 14.2989 31.4307V24.6218C14.2778 24.4742 14.1931 24.3266 14.0662 24.2845Z" fill="currentColor"></path><path d="M28.3019 16.1475H23.6907C23.4369 16.1475 23.2254 16.295 23.1408 16.5269C23.0562 16.7588 23.1196 17.0118 23.31 17.1593L27.9212 21.017C28.0269 21.1013 28.1539 21.1435 28.2808 21.1435C28.3654 21.1435 28.45 21.1224 28.5346 21.0803C28.7461 20.9749 28.873 20.7851 28.873 20.5533V16.7377C28.873 16.4215 28.6192 16.1475 28.3019 16.1475Z" fill="currentColor"></path></g><defs><clipPath id="clip0_2555_4532"><rect width="114.286" height="32" fill="currentColor"></rect></clipPath></defs>
</svg>