<?xml version="1.0" encoding="utf-8"?>
<!-- Generator: Adobe Illustrator 20.0.0, SVG Export Plug-In . SVG Version: 6.00 Build 0)  -->
<svg version="1.1" id="Layer_1" xmlns="http://www.w3.org/2000/svg" xmlns:xlink="http://www.w3.org/1999/xlink" x="0px" y="0px"
	 viewBox="0 0 402 585" style="enable-background:new 0 0 402 585;" xml:space="preserve">
<style type="text/css">
	.st0{fill:#FEFEFE;}
	.st1{fill:#929497;}
	.st2{fill:#5C5C5F;}
</style>
<g>
	<path class="st0" d="M350.4,12.4c8.5,0,17,0,25.4,0c0,10.2,0,20.5,0,30.7c-0.7,0.4-1.4,0.2-2.1,0.2c-5,0-10.1,0-15.1,0
		c-2.2,0-4.5,0-6.7,0c-1.6,0-1.8-0.2-1.8-1.8c0-0.3,0-0.6,0-1c0-8.6,0-17.2,0-25.9C350.1,13.9,349.8,13.1,350.4,12.4z"/>
	<path class="st1" d="M350.4,12.4c-0.6,0.7-0.3,1.5-0.3,2.3c0,8.6,0,17.2,0,25.9c0,0.3,0,0.6,0,1c0.1,1.6,0.2,1.7,1.8,1.8
		c2.2,0,4.5,0,6.7,0c5,0,10.1,0,15.1,0c0.7,0,1.4,0.2,2.1-0.2c0,1.9,0,3.8,0,5.8c-0.9-0.4-1.9-0.1-2.8-0.1c-6.9,0-13.7,0-20.6,0
		c-1.1,0-2.1,0-2.9,0.7c-0.1-1.6,1.1-1.5,2.1-1.5c3.4,0,6.7,0,10.1,0c3.9,0,7.8,0,11.8,0c0.6,0,1.3,0.2,1.7-0.5
		c0.9-1.5-0.1-3.3-1.9-3.3c-3.5,0-7,0-10.6,0c-3.8,0-7.7,0-11.5,0c-1.6,0-1.8-0.2-1.8-1.8c0-0.6,0-1.1,0-1.7c0-8.2,0-16.5,0-24.7
		c0-0.6,0-1.1,0-1.7c0-0.9-0.5-1.3-1.4-1.3c-0.5,0-1,0-1.4,0c-1.1-0.1-1.4,0.4-1.4,1.4c0,0.5,0,1,0,1.4c0,8.3,0,16.6,0,24.9
		c0,0.6,0,1.1,0,1.7c0,1.1-0.5,1.6-1.6,1.7c-0.6,0-1.1,0-1.7,0c-6.6,0-13.3,0-19.9,0c-0.6,0-1.1,0-1.7,0c-0.7,0-1,0.3-1.1,1
		c-0.3,2.2,0.1,2.8,2.2,2.8c6.2,0,12.5,0,18.7,0c1.1,0,2.2,0,3.4,0c1.1,0,1.6,0.6,1.6,1.6c0,0.6,0,1.1,0,1.7c0,8.4,0,16.8,0,25.2
		c0,2.8,0.2,3,3,2.6c0.5-0.1,0.9-0.3,1.4-0.4c0.3,0.3,0.2,0.6,0,0.8c-0.4,0.4-0.9,0.4-1.3,0.4c-4.4,0-3.7,0.1-3.7-3.5
		c0-8.2,0-16.3,0-24.5c0-0.6,0-1.3,0-1.9c0-0.8-0.4-1.2-1.2-1.2c-0.6,0-1.1,0-1.7,0c-6.7,0-13.4,0-20.2,0c-0.5,0-1,0-1.4,0
		c-0.3,0-0.7,0-0.9-0.2c-1.2-1.2-0.5-2.7-0.5-4.1c0-0.9,0.7-1.2,1.5-1.2c2.3,0,4.6,0,7,0c5.1,0,10.2,0,15.4,0c2,0,2.1-0.1,2.1-2
		c0-9.4,0-18.7,0-28.1c0-0.3-0.2-0.6-0.2-0.9C346.2,12.4,348.3,12.4,350.4,12.4z"/>
	<path class="st2" d="M304.1,179.9c0,31.8,0,63.5,0,95.3c0,3.3,0.2,3.2-3.1,3.2c-10.8,0-21.6,0-32.4,0c-0.6,0-1.1,0-1.7,0
		c-1.8,0.1-2,0.3-2.1,2.1c0,0.3,0,0.6,0,1c0,13.3,0,26.6,0,39.8c0,0.5,0,1,0,1.4c0.1,1.6,0.3,1.8,1.8,1.9c0.6,0,1.1,0,1.7,0
		c11.8,0,23.7-0.1,35.5-0.1c2.9,0,2.9,0,3,2.9c0,9.4,0,18.7,0.1,28.1c0,2.3-0.5,4.4-1.5,6.4c-8.7,17.3-17.2,34.6-25.9,51.9
		c-19.5,38.9-39.1,77.8-58.7,116.8c-5.2,10.3-10.4,20.5-15.5,30.8c-2.4,4.8-6.2,7.6-11.3,8.9c-0.5,0.1-0.9,0.1-1.4,0
		c-5.2-1.2-9.2-4-11.6-8.9c-4.6-9.2-9.2-18.3-13.8-27.4c-18.2-36.2-36.5-72.4-54.6-108.6c-10.1-20.1-20.1-40.3-30.2-60.5
		c-1.1-2.3-1.7-4.6-1.7-7.1c-0.1-9.6-0.2-19.2-0.4-28.8c0-0.5,0-1,0-1.4c0-2.5,0-2.5,2.5-2.5c9.8,0,19.7,0,29.5,0
		c3.7,0,3.3,0.2,3.3-3.4c0-8.2,0-16.3,0-24.5c0-2.5,0-2.5-2.6-2.5c-10.4,0-20.8,0-31.2,0c-0.5,0-1,0-1.4,0c-2.1,0-2.1-0.1-2.1-2.2
		c0-5.7,0-11.4,0-17c0-49.3,0-98.6,0-147.8c0-0.2,0-0.5,0-0.7c0-2,0.1-2.1,2.2-2.1c10.6,0,21.3,0,31.9,0c3.5,0,3.2,0.2,3.2-3.3
		c0-7.1,0-14.2,0-21.4c0-2.2,0-2.2,2.3-2.3c2.3,0,4.6,0,7,0c1.8,0,1.9,0.1,1.9,1.9c0,0.4,0,0.8,0,1.2c0,7,0,14.1,0,21.1
		c0,2.7,0,2.7,2.8,2.7c10.4,0,20.8,0,31.2,0c0.6,0,1.3,0,1.9,0c0.9,0,1.3,0.5,1.3,1.4c0,0.5,0,1,0,1.4c0,54.8,0,109.6,0,164.4
		c0,0.4,0,0.8,0,1.2c0.1,1.2-0.5,1.6-1.6,1.5c-0.6,0-1.1,0-1.7,0c-10.2,0-20.3,0-30.5,0c-0.6,0-1.1,0-1.7,0
		c-1.2-0.1-1.8,0.4-1.8,1.6c0,0.4,0,0.8,0,1.2c0,8.3,0,16.6,0,25c0,0.5,0,1,0,1.4c0,0.7,0.4,1,1,1.1c0.6,0,1.1,0,1.7,0
		c37.7-0.1,75.4-0.1,113-0.2c3,0,6.1-0.1,9.1-0.1c1.6,0,1.7-0.2,1.8-1.8c0-0.5,0-1,0-1.4c0-13.4,0-26.7,0-40.1c0-0.5,0-1,0-1.4
		c0-1-0.4-1.5-1.4-1.5c-0.6,0-1.3,0-1.9,0c-9.9,0-19.8,0-29.8,0c-0.5,0-1,0-1.4,0c-1.6-0.1-1.8-0.2-1.9-1.8c0-0.5,0-1,0-1.4
		c0-63.4,0-126.9,0-190.3c0-3.2,0-3.3,3.3-3.3c10,0,20,0,30,0c0.5,0,1,0,1.4,0c1.3,0.1,1.7-0.6,1.7-1.7c0-0.5,0-1,0-1.4
		c0-7.8,0-15.5,0-23.3c0-0.5,0-1,0-1.4c0-0.9,0.4-1.3,1.3-1.3c2.9,0,5.8,0,8.6,0c0.9,0,1.4,0.4,1.3,1.3c0,0.5,0,1,0,1.4
		c0,7.7,0,15.4,0,23c0,3.5,0,3.5,3.6,3.5c10.8,0,21.6,0,32.4,0c0.2,0,0.3,0,0.5,0c2.7,0,2.8,0,2.8,2.8
		C304.1,116.2,304.1,148,304.1,179.9z M92,360.9c0.1,1.6,1,2.7,1.6,4c8.6,17.7,17.2,35.4,25.8,53c9.9,20.4,19.9,40.8,29.8,61.2
		c0.8,1.6,1.7,2.4,3.6,2.4c27-0.1,53.9-0.1,80.9,0c1.9,0,2.9-0.7,3.6-2.3c2.9-6.2,5.9-12.3,8.8-18.4c12.2-25.1,24.4-50.1,36.6-75.2
		c3.6-7.5,7.3-14.9,10.9-22.4c0.4-0.7,0.9-1.4,0.7-2.3c-0.3-0.1-0.3-0.2-0.4-0.2c-0.4,0.1-0.8,0.1-1.2,0.2c-5.5,1.2-11,1-16.3-1
		c-12-4.5-20-13-24.7-24.9c-0.3-0.8-0.4-1.7-1-2.2c-0.6,0.1-0.6,0.5-0.8,0.8c-2.3,6.1-6.2,11.2-10.6,15.8
		c-6.9,7.2-14.9,12.7-24.1,16.7c-6.9,3-14.1,4.7-21.6,4.9c-5.5,0.1-11-1-16.3-2.6c-10.1-3.1-19-8.4-26.8-15.5
		c-6-5.4-11.1-11.5-14.1-19.2c-0.2-0.4-0.3-1-0.9-0.9c-0.5,0.5-0.6,1.3-0.8,1.9c-3,8.3-8.2,15-15.3,20.1c-7.2,5.2-15.2,7.7-24.2,6.3
		C94.3,361.1,93.2,360.4,92,360.9z M224.1,179.9c0,29.4,0,58.7,0,88.1c0,0.6,0,1.1,0,1.7c0.1,1.6,0.3,1.8,1.8,1.9c0.5,0,1,0,1.4,0
		c22.2,0,44.5,0,66.7,0c3.1,0,3.1,0,3.1-3.2c0-58.2,0-116.5,0-174.7c0-1,0-1.9,0-2.9c0-2.2-0.1-2.3-2.3-2.3c-22.8,0-45.6,0-68.4,0
		c-2.4,0-2.4,0-2.4,2.4c0,0.2,0,0.5,0,0.7C224.1,121,224.1,150.5,224.1,179.9z M84.4,209.8c0,25.1,0,50.2,0,75.4c0,0.7,0,1.4,0,2.2
		c0,0.9,0.5,1.5,1.5,1.5c0.5,0,1,0,1.4,0c22.6,0,45.1,0,67.7,0c2.9,0,2.9-0.1,2.9-3c0-0.1,0-0.2,0-0.2c0-50.6,0-101.3,0-151.9
		c0-2.8,0-2.9-2.9-2.9c-15.8,0-31.5,0-47.3,0c-6.7,0-13.4,0-20.2,0c-3.5,0-3.2-0.2-3.2,3.3c0,0.1,0,0.2,0,0.2
		C84.4,159.5,84.4,184.7,84.4,209.8z"/>
	<path class="st2" d="M349.5,78.6c-0.5,0.1-0.9,0.4-1.4,0.4c-2.8,0.3-3,0.1-3-2.6c0-8.4,0-16.8,0-25.2c0-0.6,0-1.1,0-1.7
		c0-1.1-0.5-1.6-1.6-1.6c-1.1,0-2.2,0-3.4,0c-6.2,0-12.5,0-18.7,0c-2.2,0-2.6-0.5-2.2-2.8c0.1-0.7,0.4-1,1.1-1c0.6,0,1.1,0,1.7,0
		c6.6,0,13.3,0,19.9,0c0.6,0,1.1,0,1.7,0c1.1,0,1.6-0.6,1.6-1.7c0-0.6,0-1.1,0-1.7c0-8.3,0-16.6,0-24.9c0-0.5,0-1,0-1.4
		c-0.1-1,0.3-1.5,1.4-1.4c0.5,0,1,0,1.4,0c0.9,0,1.4,0.4,1.4,1.3c0,0.6,0,1.1,0,1.7c0,8.2,0,16.5,0,24.7c0,0.6,0,1.1,0,1.7
		c0.1,1.6,0.2,1.8,1.8,1.8c3.8,0,7.7,0,11.5,0c3.5,0,7,0,10.6,0c1.8,0,2.8,1.8,1.9,3.3c-0.4,0.7-1.1,0.5-1.7,0.5
		c-3.9,0-7.8,0-11.8,0c-3.4,0-6.7,0-10.1,0c-1,0-2.2-0.1-2.1,1.5C349.5,59.1,349.5,68.9,349.5,78.6z"/>
	<path class="st0" d="M92,360.9c1.2-0.5,2.2,0.2,3.3,0.4c9,1.4,17-1.1,24.2-6.3c7.1-5.2,12.3-11.8,15.3-20.1
		c0.2-0.6,0.3-1.4,0.8-1.9c0.7,0,0.8,0.5,0.9,0.9c3,7.6,8.1,13.7,14.1,19.2c7.8,7.1,16.7,12.3,26.8,15.5c5.3,1.7,10.8,2.7,16.3,2.6
		c7.5-0.2,14.7-1.9,21.6-4.9c9.1-3.9,17.2-9.5,24.1-16.7c4.4-4.7,8.2-9.8,10.6-15.8c0.1-0.3,0.2-0.6,0.8-0.8c0.6,0.5,0.7,1.4,1,2.2
		c4.7,11.8,12.7,20.4,24.7,24.9c5.3,2,10.8,2.2,16.3,1c0.4-0.1,0.8-0.1,1.2-0.2c0.1,0,0.1,0.1,0.4,0.2c0.2,0.8-0.3,1.5-0.7,2.3
		c-3.6,7.5-7.3,14.9-10.9,22.4c-12.2,25.1-24.4,50.1-36.6,75.2c-3,6.1-6,12.2-8.8,18.4c-0.8,1.7-1.7,2.3-3.6,2.3
		c-27-0.1-53.9-0.1-80.9,0c-1.9,0-2.8-0.7-3.6-2.4c-9.9-20.4-19.8-40.8-29.8-61.2c-8.6-17.7-17.2-35.3-25.8-53
		C93,363.6,92.1,362.5,92,360.9z"/>
	<path class="st0" d="M224.1,179.9c0-29.4,0-58.9,0-88.3c0-0.2,0-0.5,0-0.7c0-2.4,0-2.4,2.4-2.4c22.8,0,45.6,0,68.4,0
		c2.2,0,2.3,0.1,2.3,2.3c0,1,0,1.9,0,2.9c0,58.2,0,116.5,0,174.7c0,3.2,0,3.2-3.1,3.2c-22.2,0-44.5,0-66.7,0c-0.5,0-1,0-1.4,0
		c-1.6-0.1-1.8-0.3-1.8-1.9c0-0.6,0-1.1,0-1.7C224.1,238.6,224.1,209.3,224.1,179.9z"/>
	<path class="st1" d="M84.4,209.8c0-25.1,0-50.2,0-75.4c0-0.1,0-0.2,0-0.2c0-3.5-0.3-3.3,3.2-3.3c6.7,0,13.4,0,20.2,0
		c15.8,0,31.5,0,47.3,0c2.9,0,2.9,0,2.9,2.9c0,50.6,0,101.3,0,151.9c0,0.1,0,0.2,0,0.2c0,2.9,0,3-2.9,3c-22.6,0-45.1,0-67.7,0
		c-0.5,0-1,0-1.4,0c-1,0-1.4-0.6-1.5-1.5c0-0.7,0-1.4,0-2.2C84.4,260,84.4,234.9,84.4,209.8z"/>
</g>
</svg>
