<?xml version="1.0" encoding="utf-8"?>
<!-- Generator: Adobe Illustrator 20.0.0, SVG Export Plug-In . SVG Version: 6.00 Build 0)  -->
<svg version="1.1" id="Layer_1" xmlns="http://www.w3.org/2000/svg" xmlns:xlink="http://www.w3.org/1999/xlink" x="0px" y="0px"
	 viewBox="0 0 104 149" style="enable-background:new 0 0 104 149;" xml:space="preserve">
<style type="text/css">
	.st0{fill:url(#Shape_1_);}
</style>
<title>xxxhdpi/Shape</title>
<desc>Created with Sketch.</desc>
<g id="logo">
	<g id="Group-6" transform="translate(-40.000000, -17.000000)">
		<g id="Group-7">
			<g id="Group-5" transform="translate(40.043764, 17.619256)">
				<linearGradient id="Shape_1_" gradientUnits="userSpaceOnUse" x1="51.6565" y1="147.7615" x2="51.6565" y2="6.591705e-08">
					<stop  offset="0" style="stop-color:#FF1480"/>
					<stop  offset="1" style="stop-color:#FF6B3C"/>
				</linearGradient>
				<path id="Shape" class="st0" d="M48.8,0h4.8c4.4,0.2,8.9,0.9,13.1,2.2C74.6,4.6,81.9,9,87.8,14.8c5.6,5.5,10,12.3,12.6,19.7
					c1.9,5.3,2.9,11,2.9,16.7v1.1c-0.1,5.8-1.2,11.5-2.9,17c-2.4,8.2-6,16-9.9,23.5c-3.9,7.3-8.2,14.4-12.9,21.3
					c-4.5,6.6-9.2,13.1-14.1,19.4c-3.5,4.4-7,8.8-10.7,13c-0.4,0.4-0.8,0.8-1.1,1.3h-0.1c-0.4-0.6-1-1.2-1.5-1.8
					c-4-4.6-7.9-9.4-11.6-14.2c-0.2-0.3-0.5-0.5-0.5-0.8c0-13.5,0-27.1,0-40.6c0-0.3,0.1-0.7-0.1-1c-7.4-2.9-14-7.8-18.6-14.3
					c-0.1-0.1-0.2-0.2-0.3-0.3c0,3.2,0,6.3,0,9.5c0,1.5,0,2.9,0,4.4c0.1,0.6-0.1,1.1-0.1,1.7c0,4.4,0,8.8,0,13.2
					c-4.2-7-8.2-14.2-11.4-21.7c-1.8-4.2-3.5-8.6-4.8-13c-0.6-2.2-1.2-4.4-1.7-6.6c-0.6-3-0.9-6-1-9.1v-3.2
					c0.3-7.7,2.3-15.3,5.8-22.1c3.2-6.2,7.7-11.7,13.1-16.2c0.1,12.2,0,24.4,0,36.6c0,2.7-0.1,5.5,0.3,8.2c0.3,2.5,1,4.9,1.9,7.2
					c2.8,7.2,8.1,13.3,14.9,17c7.6,4.1,16.9,5,25.2,2.4c4.6-1.4,8.8-3.9,12.3-7.1c5.6-5.2,9.4-12.4,10.3-20c0.3-2.5,0.4-5.1,0.1-7.6
					c-0.9-8.4-5.2-16.3-11.6-21.8c-3-2.5-6.5-4.4-10.2-5.8c-4.7-1.7-9.8-2-14.8-1.7c0,6.5,0,12.9,0,19.4c3.5-0.7,7.2-0.5,10.4,1.1
					c1.8,0.9,3.3,2.3,4.6,3.8c3.4,4.5,3.7,11.1,0.6,15.8c-0.8,1.2-1.8,2.3-2.9,3.2c-4.5,3.7-11.5,4-16.3,0.6c-1.3-1-2.6-2.2-3.5-3.5
					c-1.3-2-2.1-4.3-2.3-6.6c-0.1-0.8,0-1.6-0.1-2.3c0-6.6,0-13.1,0-19.7c0-9.7,0-19.4,0-29.1c3-0.8,6.1-1.3,9.1-1.5
					C47.7,0.1,48.2,0.2,48.8,0z"/>
			</g>
		</g>
	</g>
</g>
</svg>
