<svg width="421" height="439" viewBox="0 0 421 439" fill="none" xmlns="http://www.w3.org/2000/svg">
<path d="M268.278 439H322.469C331.839 439 340.599 433.969 345.861 425.566L409.245 324.339C416.781 312.305 408.826 296.035 395.405 296.035C384.895 296.035 376.989 285.656 378.981 274.474L420.479 41.4403C423.845 22.5411 410.484 5 392.722 5H337.067C323.592 5 311.989 15.3076 309.347 29.6272L240.559 402.357C237.06 421.313 250.44 439 268.278 439Z" fill="url(#paint0_linear_3189_8940)"/>
<path d="M238.641 153H148.647C135.133 153 123.496 163.336 120.846 177.695L108.56 244.256C105.051 263.264 118.47 281 136.361 281H228.812C242.741 281 254.608 270.036 256.809 255.134L266.637 188.574C269.393 169.908 256.087 153 238.641 153Z" fill="url(#paint1_linear_3189_8940)"/>
<path d="M152.722 0H98.5314C89.1612 0 80.4005 5.03127 75.1387 13.4335L11.7545 114.661C4.21887 126.695 12.1739 142.965 25.5951 142.965C36.1046 142.965 44.0106 153.344 42.0185 164.526L0.521298 397.559C-2.84462 416.459 10.5163 434 28.2778 434H83.9332C97.4082 434 109.011 423.692 111.653 409.372L180.441 36.6434C183.94 17.6865 170.56 0 152.722 0Z" fill="url(#paint2_linear_3189_8940)"/>
<defs>
<linearGradient id="paint0_linear_3189_8940" x1="330.5" y1="5" x2="330.5" y2="439" gradientUnits="userSpaceOnUse">
<stop stop-color="#DA9D0A"/>
<stop offset="1" stop-color="#F3BA2F"/>
</linearGradient>
<linearGradient id="paint1_linear_3189_8940" x1="278" y1="185" x2="-125.5" y2="120" gradientUnits="userSpaceOnUse">
<stop stop-color="#F3BA2F"/>
<stop offset="1" stop-color="#F3BA2F"/>
</linearGradient>
<linearGradient id="paint2_linear_3189_8940" x1="90.5" y1="0" x2="90.5" y2="434" gradientUnits="userSpaceOnUse">
<stop stop-color="#F3BA2F"/>
<stop offset="1" stop-color="#DA9D0A"/>
</linearGradient>
</defs>
</svg>
