<svg xmlns="http://www.w3.org/2000/svg" xmlns:xlink="http://www.w3.org/1999/xlink" width="400" height="396" viewBox="0 0 300 297"><path d="M136 0h.5c1.56 1.37 3.02 2.96 4.97 3.8 3.6 1.07 7.6-.86 9.7-3.8h.73c2.6 5.5 10.7 5.22 13.4 0h1.64c.82 7.95-8.8 13.2-15.6 9.96 2.7 2.1 5.7 4.96 8.68 6.58 0 27.1-1.9 45.5-1.9 76.4 17.2-12.8 24.8-36.1 20.4-56.8-1.03-6.4-4.06-12.2-6.2-18.3 6.12 3.74 10.6 9.7 13.7 16.1 5.36 11.1 6 23.8 4.53 35.9-2.23 14.2-9.9 28.3-23.2 34.7 5.56 3.44 12.3 2.8 18.3 4.73-4.6 3.06-10.2 3.82-15.5 4.56-3.6.46-7.26.1-10.8-.9-3.05 2.7-6.1 5.4-9 8.23-2.55-2.8-5.16-5.5-7.8-8.18-8.8.66-18.2.26-25.9-4.46 5.92-2.3 12.5-1.48 18.4-3.98-17.3-11.9-27-34.1-23.5-54.9 2.2-12.4 9.26-24.2 19.6-31.5-5.06 10.5-8.6 22-7.57 33.7.8 15.4 7.9 30.4 19.4 40.6.3-25.4-.56-50.8-.93-76.2 3.4-1.7 6.5-3.95 9.05-6.78-2.8.9-5.82 2.23-8.75 1.02-4.5-1.26-7.2-5.98-6.45-10.5zM92.7 38.6c6.12-13.9 20.4-23.5 35.7-23.6-.84 2.02-3.12 2.54-4.73 3.75-7.12 4.7-11.8 12.2-15.4 19.7-5.58 12.3-7.5 26.1-5.8 39.5 1.2 7.08 3.43 14.2 7.64 20.1-.66.22-1.48 1-2.1.22-6.43-4.13-11.8-9.94-15.3-16.8-6.54-13.3-6.3-29.5.01-42.9zM177 16c14 .33 26.5 10.3 32.6 22.5 7.03 14.1 7.52 31.6-.16 45.4-3.46 6.5-8.92 11.7-15.3 15.2-.17-3.3 2.9-5.68 3.9-8.7 2.82-7.22 3.67-15 4.13-22.6-.54-10.4-2.07-20.9-6.6-30.4-2.3-5-5.43-9.58-9.08-13.7-2.8-3.04-6.42-5.1-9.47-7.84zm-78.6 84c1.7-1.93 4.97-2.54 6.97-.7l35.9 36.9c2.4 2.76 5.6 4.96 7 8.45-1 1.4-2 2.83-3.24 4.03l-41.2 41H99.3c-8.1-8.48-16.8-16.4-24.8-25 6.22-6.56 12.6-13 19.4-19 3.22.24 5.2 3.8 7.93 5.38 2.34-2.4 4.44-4.93 6.94-7.43-2.32-2.32-4.53-4.86-6.82-7.15-5.52 4.83-10.8 10-16.2 15-10.1 10.3-21.1 19.6-31.1 30-2 1.6-3.74 4.56-6.7 3.92-9.3-.65-18.6-.6-28-.6l-.03-28.1c6.6-.1 13.3.3 19.8-.13 11.6-10.4 22.2-21.8 33.7-32.3 8.5-7.86 16.5-16.3 24.9-24.2zm98.6-1c1.83.1 4.05-.44 5.32 1.3l23.9 24c-5.7 5.14-11 10.7-16.5 16-1.44 1.33-2.8 3.48-5.1 2.68-2.22-1.38-3.93-3.4-5.74-5.22-2.74 2.14-5.15 4.68-7.5 7.24 2.3 2.83 4.94 5.35 7.52 7.9 17.5-15.8 33.7-32.9 51-48.9l30.6.03.05 28.1-19.6.02-32.2 31.1c-7.45 7.55-15.2 14.8-22.9 22.1-2.12 1.93-3.92 4.3-6.47 5.66-2.12.4-3.84-1.25-5.2-2.6l-34.8-35.4c-2.23-2.47-4.98-4.54-6.66-7.45-.73-1.48.5-2.9 1.45-3.92l42.7-42.7zm-176.3 4l29.3-.1c2.4-.45 3.76 1.82 5.28 3.2 5.6 5.57 11 11.3 16.8 16.7-6.47 6.55-13.3 12.7-19.9 19.2-4.15-3.88-8.26-7.8-12.6-11.4-6.18-.4-12.4.01-18.6-.17.07-9.12-.1-18.2-.3-27.4zM6.98 134c7.65-.4 15.3.02 23-.38 2.86-.02 5.76-.44 8.6.07 3.07 3.1 5.6 6.68 8.56 9.9-3.37 2.72-5.83 6.63-9.3 9.07-9.27-.03-18.6.15-27.8.12-6.56.44-11.9-7.97-8.2-13.6 1.4-1.93 2.9-4.27 5.2-5.14zM262 137l29.6-.16c3.7-.3 5.97 3.2 7.95 5.77v6.06c-1.78 3-3.78 7.38-7.95 6.97l-29.6.4c-2.8-3.62-5.94-6.9-8.9-10.4 2.74-3.13 6.16-5.58 8.95-8.67z"/><path d="M229 167l20.4-20.5c3.82 4.5 7.9 8.77 11.9 13.1h18.6c.22 9.35 1.35 18.6 1 28-10.8-.12-21.7-.87-32.5-.96l-19.4-19.6zm-82-16c1.08-1.2 2.47-2.04 3.94-2.7l2.98 1.08 44.8 45.5c-6.15.463-13.8.25-20.2.25-4.65-7.96-12.7-14.3-22.1-14.9 4.6 2.18 8.42 6.3 9.35 11.4 2.23 8.98-5.5 18.3-14.6 18.7l.08 26.8c.07 1.28-.4 2.35-1.45 3.2a1440.05 1440.05 0 0 1-44.6-45.2c.17-1.42-.4-3.2.98-4.14l40.8-40.1m-19 38.6c-2.93 3.35-2.46 9.06 1.05 11.8 3.4 2.9 7.6 4.68 11.8 6.05-2.88-3.17-5.85-6.87-5.77-11.4-.87-6.06 2.54-11.8 7.5-15.1-5.44 1.58-11 4.03-14.6 8.6zM175 250c2-4.17 7.25-3.6 10.7-1.76-1.8 3.54-6.4 3.46-9.2 5.88l2.78 3.24c.128 1.47-.133 1.92-1.2 2.52l-4.5.13c-2.67 2.1-3.03 5.6-4.98 8.2a32.04 32.04 0 0 0 .8-5.04c-1.04-.37-2.22-1.48-3.16-.3-2.7 2.45-4.4 5.72-6.26 8.8-2.4 1.1-4.9 1.95-7.5 2.3 2.72-2.14 6.14-3.42 8.32-6.2-.52-1.46-3.85-.25-3.57-2.6.7-2.06 1.96-3.84 3.24-5.56 1.45 1 2.6 2.3 3.64 3.72 1.6-1.56 2.9-5.28 5.67-4.1l.96 1.78c1.7-2.27 3.45-4.52 4.77-7.04 1.3-2.52 4.23-3.3 6.36-4.92-1.46-.532-1.97-.57-3.94-.12l-1.64 1.15zm-84 14c.07-5.15-.94-10.9 2.63-15.2-.7 3.84-.82 7.8-.5 11.7.75 2 2.9 1.48 4.56 1.48 1.27-1.32 3-1.83 4.65-2.48 1.4-1.1 2.52-2.52 3.82-3.73-.84 3.47-3.37 7.14-7.22 7.35-1.57 2-4.02 5.24-6.77 3.08-.4 3.02-1.93 5.93-4.5 7.64-1.4.53-2.66-.6-3.88-1.08a4.75 4.75 0 0 1 1.11-3.16c.78-5.87-.02-12.2 3.06-17.6-.1 6.4.17 13.3-2.9 19.1 3.78.2 6.12-3.76 5.94-7.15zm128-13c-.58 3.66-.92 7.35-1.58 11 .05 2.17-.8 5.07 1.3 6.55 1.05 1.23 2.68.3 3.7-.43 2.77-2.04 3.3-6 6.38-7.7 1.24-.84 2.53.08 3.7.58a47.37 47.37 0 0 0 5.72-3.81c.63 1.93-1.3 3.1-2.64 4.07-2.5 1.68-5.5 2.06-8.45 1.92.08 1.52 1.3 1.7 1.6 4.1-.75 2.54-3.12 1.96-5.15 1.73-.9 1.25-1.78 2.53-2.52 3.9-.86.53-1.77.97-2.72 1.3-1.5-.75-3-2.24-2.94-4.04-.27-6.94 1.1-13.3 3.6-19.2zM28.4 272c2.3-6.06 1.22-13.2 5.48-18.5-1.55 6.15-.2 13.9-5.48 18.5zm22.6-8c.17-3.64 1.65-7.05 3.5-10.1-.9 6.13-.65 12.8-4.5 18.1-.06.72-.3 1.34-.72 1.85.05-3.35 1.56-6.45 1.7-9.8zm56 9c2.5-6 1.32-13 5.32-18.5-.76 6.3-.3 13.8-5.32 18.5zm148 0c2.6-6.18 1.38-13.5 5.7-19-1.26 6.44-.45 14.1-5.7 19zM76.1 260l2.66-5.1 3.94 2.44c-1.17 5.05-7.45 5.4-9.83 9.72l3.05 1.42c1.66 2.26.4 5.02-.2 7.42-1.6 4.8-5.25 9.98-10.9 9.8-3.16.36-5-2.73-5.7-5.36-.95-5.8 2.45-10.9 4.2-16.1l.94.07c-1.26 4-3.97 7.7-3.3 12.1-.2 1.76 1.6 2.7 2.48 3.96 4.83.85 10.1-1.17 11.6-6.1l-3.9-2.27c-.73-4.62 2.95-8.3 6-11.2l-1.08-.73zm51.9 12c-.18-7.13 5.55-13.6 12-16.1-.58 1.76-1.2 3.5-2 5.18-3.64-.35-6.24 2.73-7.9 5.56 1.37.97 3.6 1.52 3.45 3.62 0 5.82-2.7 11.8-7.8 14.8-3.05.62-7.68 1.2-8.95-2.5-2.18-5.02.6-10.4 2.57-15 .88-1.62 1.43-3.48 2.84-4.74-1.05 5.1-5.04 9.52-4.2 15 .33.966 1.06 1.78 2.5 2.3 5 .98 10.4-1.45 11.8-6.56a131.86 131.86 0 0 1-4.31-1.65zm72-2c1.43-6.37 5.96-12 12-14.5-.22 1.78-.87 3.46-1.52 5.12-3.4-.43-5.52 2.4-7.57 4.6-.87 1.87 1.77 2.18 2.8 3.08.58 5.66-1.7 11.7-6.2 15.3-2.37 1.84-5.58 1.77-8.38 1.2-1.15-.68-1.85-1.4-2.2-2.35-1.3-4.06-.42-8.4 1.4-12.2 1.3-2.67 2.08-5.72 4.32-7.8-1.5 4.48-3.9 8.62-4.86 13.3l1.2 2.92c4.38 2.75 10 .76 12.8-3.28l.17-2.27c-1.78-.4-3.12-1.53-3.98-3.1zm-156.5-9c1.73-.95 3.12-2.34 4.58-3.63-1.08 2.28-1.5 5.3-4.1 6.43-1.78.83-3.05 2.3-3.7 4.14-.56 4.27-4.9 5.8-8.67 5.74 1.97-2.2 4.7-3.44 6.9-5.37 1.73-2.4 2.13-5.9 5-7.3zm237.5 5c1.86-2.46 3.23-5.1 5.98-6.7 1.63-.22 2.33.536 2.4 1 .17 5.95-6.14 12.2-12.1 9.1-1.32 1.55-2.2 3.66-4.15 4.56-2.23.8-4.56-1.22-4.14-3.55-1.8 3.24-5.5 3.77-8.77 4.56 2.28-2.47 5.85-3.43 7.64-6.38 1.16-1.8 2.12-3.73 3.1-5.63l.87.7c-1.27 1.72-1.14 5.07 1.45 5.4 3.2.58 4.44-3.94 7.73-3.07m.96.2c2.26.35 6-1.6 5.2-4.2-2.64-.4-3.62 2.7-5.2 4.2zM146 268c2.36-2.34 2.07-6.1 4.32-8.5-.66 3.64-1.1 7.43-2.93 10.7-1.45 2.5-4.67 2.85-7.18 3.6 1.64-2.22 3.95-3.8 5.8-5.8zm100-8c1.37-.74 3 .275 3.08 1.57-.13 2.7-.52 5.43-1.86 7.82-1.18 3.25-5.02 3.64-7.83 4.7 2.26-2.54 5.42-4.07 7.52-6.8-1.4-.3-3.14-.15-3.74-1.76.55-2 1.26-4.1 2.83-5.54zM24 272c-.18-4.1.1-8.5 3.1-11.6-1 5.2-.73 10.7-3.05 15.6-2.56 6.02-8.8 11.3-15.7 9.1-5.94-5.26-1.86-13.9 1.78-19.3-.44 4.43-4.88 8.7-1.72 13.1 5.87 3.67 14.1-.27 15.6-6.84zm-10.4-2l2.82-4.93 2.74 2.05c-.07 1.75-.44 3.45-1.38 4.95-1.46-.55-2.85-1.26-4.18-2.07z"/><use xlink:href="#B"/><use xlink:href="#B" x="-5"/><use xlink:href="#B" x="-48" y="-16"/><use xlink:href="#B" x="-188.5" y="-4"/><use xlink:href="#B" x="-183.1" y="-4"/><defs ><path id="B" d="M228 289l2.78 3.07-2.52 4.33-3.05-3.34c.83-1.44 1.87-2.7 2.8-4.06z"/></defs></svg>