<?xml version="1.0" encoding="UTF-8" standalone="no"?>
<!-- Created with Inkscape (http://www.inkscape.org/) -->

<svg
   xmlns:dc="http://purl.org/dc/elements/1.1/"
   xmlns:cc="http://creativecommons.org/ns#"
   xmlns:rdf="http://www.w3.org/1999/02/22-rdf-syntax-ns#"
   xmlns:svg="http://www.w3.org/2000/svg"
   xmlns="http://www.w3.org/2000/svg"
   xmlns:sodipodi="http://sodipodi.sourceforge.net/DTD/sodipodi-0.dtd"
   xmlns:inkscape="http://www.inkscape.org/namespaces/inkscape"
   width="54.951324mm"
   height="63.035137mm"
   viewBox="0 0 54.951324 63.035137"
   version="1.1"
   id="svg8"
   inkscape:version="0.92.3 (2405546, 2018-03-11)"
   sodipodi:docname="gaj-logo.svg">
  <defs
     id="defs2">
    <style
       id="style10">.cls-1,.cls-4{fill:#1ebcc5}.cls-2{fill:#b7c626}.cls-3{fill:#c4c436}.cls-4{fill-rule:evenodd}.cls-5{fill:#58595b}</style>
  </defs>
  <sodipodi:namedview
     id="base"
     pagecolor="#ffffff"
     bordercolor="#666666"
     borderopacity="1.0"
     inkscape:pageopacity="0.0"
     inkscape:pageshadow="2"
     inkscape:zoom="0.35"
     inkscape:cx="-450.92891"
     inkscape:cy="418.24302"
     inkscape:document-units="mm"
     inkscape:current-layer="layer1"
     showgrid="false"
     fit-margin-top="0"
     fit-margin-left="0"
     fit-margin-right="0"
     fit-margin-bottom="0"
     inkscape:window-width="1600"
     inkscape:window-height="838"
     inkscape:window-x="-8"
     inkscape:window-y="-8"
     inkscape:window-maximized="1" />
  <metadata
     id="metadata5">
    <rdf:RDF>
      <cc:Work
         rdf:about="">
        <dc:format>image/svg+xml</dc:format>
        <dc:type
           rdf:resource="http://purl.org/dc/dcmitype/StillImage" />
        <dc:title></dc:title>
      </cc:Work>
    </rdf:RDF>
  </metadata>
  <g
     inkscape:label="Layer 1"
     inkscape:groupmode="layer"
     id="layer1"
     transform="translate(-225.14161,-196.45833)">
    <g
       id="g73"
       transform="matrix(0.26458333,0,0,0.26458333,62.629055,196.45649)">
      <path
         id="path16"
         transform="translate(-133.97,-49.7)"
         d="m 862.58,116.58 q -1.19,-1.9 -2.53,-3.89 H 860 c 0.89,1.32 1.74,2.61 2.53,3.89 a 104.64,104.64 0 0 1 6.09,11 h 0.06 a 104.32,104.32 0 0 0 -6.1,-11 z"
         class="cls-1"
         inkscape:connector-curvature="0"
         style="fill:#1ebcc5" />
      <path
         id="path18"
         transform="translate(-133.97,-49.7)"
         d="m 955.57,225.17 c -0.24,3.11 -0.62,6 -1.09,8.68 a 56.71,56.71 0 0 1 -1.76,7.39 38.63,38.63 0 0 1 -2.5,6.1 18.45,18.45 0 0 1 -2.11,3.23 14.16,14.16 0 0 1 -1.18,1.25 11.19,11.19 0 0 1 -1.27,1 q -0.32,0.23 -0.67,0.43 c -0.22,0.13 -0.46,0.25 -0.69,0.37 -0.23,0.12 -0.47,0.22 -0.71,0.32 l -0.73,0.26 a 69.2,69.2 0 0 1 -20.23,2.93 111.73,111.73 0 0 1 -22.31,-2.32 184.78,184.78 0 0 1 -23.67,-6.51 c -1,-0.34 -2,-0.7 -3,-1.06 l -3,-1.1 -3,-1.15 c -1,-0.39 -2,-0.78 -3,-1.19 -1,-0.41 -2,-0.81 -3,-1.23 l -3.05,-1.27 a 132.3,132.3 0 0 1 -27.68,-16.41 210.63,210.63 0 0 1 -19.09,-16.43 q -4.22,-4.07 -7.88,-8.3 a 98.55,98.55 0 0 1 -6.7,-8.66 76.64,76.64 0 0 1 -5.33,-9 62.38,62.38 0 0 1 -3.81,-9.31 10.28,10.28 0 0 1 -0.47,-3.08 12.49,12.49 0 0 1 0.47,-3.32 19,19 0 0 1 1.45,-3.57 37.3,37.3 0 0 1 3.59,-5.52 58.19,58.19 0 0 1 4.85,-5.7 c 1.93,-1.91 4.09,-3.87 6.5,-5.84 2.41,-1.97 5.08,-4 8,-5.91 a 189.18,189.18 0 0 1 18.58,-10.94 q 8.07,-4.16 16.51,-7.51 1.23,3.6 2.27,7.49 c 0.19,0.7 0.37,1.4 0.55,2.1 -16.08,6.8 -13.57,22.56 -1.93,41.92 a 184.55,184.55 0 0 0 11.08,16.18 c 2.43,3.22 5,6.5 7.74,9.8 28.47,29.15 54.13,45.6 61.27,14.66 a 85.66,85.66 0 0 0 1.91,-12.39 104.71,104.71 0 0 0 0.24,-13.4 131.91,131.91 0 0 0 -1.46,-14.41 c -0.57,-3.65 -1.28,-7.21 -2.14,-10.66 -0.86,-3.45 -1.86,-6.81 -3,-10.07 -4.9,-14.05 -13.15,-18 -25.5,-21.75 a 87.61,87.61 0 0 0 -9.46,-2.29 93.09,93.09 0 0 0 -12.77,-1.48 76.77,76.77 0 0 0 -7.72,0.06 104.32,104.32 0 0 0 -6.09,-11 q 4.29,-1.31 8.67,-2.42 c 45,-11.45 58.1,-0.62 72.53,37.92 a 193.77,193.77 0 0 1 6.44,20.61 188.15,188.15 0 0 1 5.64,42.55 c 0.07,3.52 -0.04,6.84 -0.29,9.95 z"
         class="cls-2"
         inkscape:connector-curvature="0"
         style="fill:#b7c626" />
      <path
         id="path20"
         transform="translate(-133.97,-49.7)"
         d="m 849.92,129.31 q -1.05,-3.89 -2.29,-7.51 h -0.06 q 1.23,3.6 2.27,7.49 c 0.19,0.7 0.37,1.4 0.55,2.1 h 0.06 q -0.25,-1.05 -0.53,-2.08 z m 12.66,-12.73 h -0.05 a 104.64,104.64 0 0 1 6.09,11 h 0.06 a 104.32,104.32 0 0 0 -6.1,-11 z"
         class="cls-3"
         inkscape:connector-curvature="0"
         style="fill:#c4c436" />
      <path
         id="path22"
         transform="translate(-133.97,-49.7)"
         d="m 859.55,189.5 a 184.55,184.55 0 0 1 -11.08,-16.18 c 5.44,-8.94 6,-17 4.84,-26.65 -0.27,-2.19 -0.63,-4.47 -1,-6.85 q -0.74,-4.22 -1.81,-8.45 -0.26,-1 -0.54,-2.06 -1.05,-3.89 -2.29,-7.51 c -0.49,-1.45 -1,-2.86 -1.53,-4.24 l 0.13,0.32 Q 853,115 860,112.7 c 0.89,1.32 1.74,2.61 2.53,3.89 a 104.64,104.64 0 0 1 6.09,11 h 0.06 c 10.42,22 6.14,38.41 -9.13,61.91 z"
         class="cls-1"
         inkscape:connector-curvature="0"
         style="fill:#1ebcc5" />
      <path
         id="path24"
         transform="translate(-133.97,-49.7)"
         d="m 852.62,102.47 q -5.76,1.94 -11.44,4.27 l 0.3,0.57 c 0.24,0.44 0.47,0.88 0.7,1.33 0.23,0.45 0.47,0.94 0.7,1.41 0.23,0.47 0.48,1 0.71,1.51 0.23,0.51 0.39,0.86 0.59,1.3 l 0.09,0.19 c 0.11,0.24 0.21,0.47 0.31,0.71 0.32,0.74 0.63,1.48 0.93,2.24 0.21,0.52 0.41,1 0.61,1.56 0.53,1.38 1,2.8 1.53,4.24 h -0.06 q -1,-3 -2.15,-5.83 a 89.18,89.18 0 0 0 -5.52,-11.41 68.05,68.05 0 0 0 -5.67,-8.37 v -0.05 c -0.29,-0.37 -0.58,-0.72 -0.87,-1.08 -18.55,-22.26 -34.6,7.72 -48.09,50.4 -10.38,43.54 -12,77.52 15.32,68 a 67.84,67.84 0 0 0 10.54,-4.75 l 0.47,-0.27 a 210.63,210.63 0 0 0 19.09,16.43 q -1.53,1.48 -3.08,2.91 a 168.31,168.31 0 0 1 -16.13,13.09 86.93,86.93 0 0 1 -7.92,5 71.19,71.19 0 0 1 -7.27,3.58 42.82,42.82 0 0 1 -6.55,2.22 29.29,29.29 0 0 1 -3.79,0.69 17.88,17.88 0 0 1 -3.86,0 c -6.43,-0.67 -9.8,-6.93 -12.81,-11.9 a 90.39,90.39 0 0 1 -5.14,-9.82 q -2.37,-5.23 -4.35,-11 -1.98,-5.77 -3.6,-12.09 c -5.92,-22.84 -9.11,-46.93 -7.68,-70.51 0.29,-4.86 0.67,-9.67 1.15,-14.37 0.48,-4.7 1,-9.32 1.71,-13.81 0.71,-4.49 1.45,-8.87 2.35,-13.1 0.9,-4.23 1.91,-8.32 3.06,-12.23 1.15,-3.91 2.43,-7.66 3.85,-11.21 a 92.7,92.7 0 0 1 4.7,-10 68.79,68.79 0 0 1 5.65,-8.7 3.54,3.54 0 0 1 0.24,-0.31 l 0.26,-0.29 c 0.08,-0.1 0.17,-0.19 0.26,-0.29 l 0.27,-0.27 0.28,-0.26 0.29,-0.24 0.3,-0.23 0.31,-0.22 0.32,-0.2 0.33,-0.2 0.33,-0.18 0.34,-0.17 0.36,-0.16 0.37,-0.14 0.37,-0.14 0.37,-0.12 a 13.34,13.34 0 0 1 3.43,-0.49 27,27 0 0 1 5.89,0.56 43.57,43.57 0 0 1 6.68,1.92 71.54,71.54 0 0 1 7.42,3.26 85.36,85.36 0 0 1 8.13,4.68 167.76,167.76 0 0 1 16.69,12.36 181,181 0 0 1 15.37,14.56 195.93,195.93 0 0 1 13,15.39 h -0.05 z"
         class="cls-1"
         inkscape:connector-curvature="0"
         style="fill:#1ebcc5" />
      <path
         id="path26"
         transform="translate(-133.97,-49.7)"
         d="m 853.31,146.67 h -0.07 c -0.27,-2.18 -0.62,-4.45 -1,-6.82 q -0.75,-4.21 -1.8,-8.41 c -0.18,-0.7 -0.36,-1.4 -0.55,-2.1 q -1,-3.88 -2.27,-7.49 h 0.06 q 1.23,3.61 2.29,7.51 0.28,1 0.54,2.06 1.06,4.23 1.81,8.45 c 0.36,2.33 0.68,4.61 0.99,6.8 z"
         class="cls-1"
         inkscape:connector-curvature="0"
         style="fill:#1ebcc5" />
      <path
         id="path28"
         transform="translate(-133.97,-49.7)"
         d="m 904.85,93.22 v 12.24 a 148.46,148.46 0 0 0 -44.79,7.23 H 860 q -7,2.25 -13.77,5.17 l -0.13,-0.32 c -0.2,-0.53 -0.4,-1 -0.61,-1.56 -0.3,-0.75 -0.62,-1.5 -0.93,-2.24 -0.1,-0.24 -0.2,-0.47 -0.31,-0.71 l -0.09,-0.19 c -0.19,-0.44 -0.39,-0.87 -0.59,-1.3 -0.2,-0.43 -0.47,-1 -0.71,-1.51 -0.24,-0.51 -0.46,-0.95 -0.7,-1.41 -0.24,-0.46 -0.46,-0.9 -0.7,-1.33 l -0.3,-0.57 q 5.68,-2.32 11.44,-4.27 h 0.05 a 176.63,176.63 0 0 1 52.2,-9.23 z"
         class="cls-2"
         inkscape:connector-curvature="0"
         style="fill:#b7c626" />
      <path
         id="path30"
         d="m 640.41,210.7 h 27.54 v 27.55 h -27.54 z"
         class="cls-4"
         inkscape:connector-curvature="0"
         style="fill:#1ebcc5;fill-rule:evenodd" />
    </g>
  </g>
</svg>
