<?xml version="1.0" encoding="UTF-8"?>
<svg width="69px" height="40px" viewBox="0 0 69 40" version="1.1" xmlns="http://www.w3.org/2000/svg" xmlns:xlink="http://www.w3.org/1999/xlink">
    <!-- Generator: Sketch 52.1 (67048) - http://www.bohemiancoding.com/sketch -->
    <title>Fill 1</title>
    <desc>Created with Sketch.</desc>
    <g id="Page-1" stroke="none" stroke-width="1" fill="none" fill-rule="evenodd">
        <g id="Artboard" fill="#FF4232">
            <path d="M9.93159634,2.3356 C9.45519634,3.2604 8.38569634,3.7113 7.38519634,3.4164 C7.04889634,3.3178 6.69929634,3.2628 6.34449634,3.2628 C5.62559634,3.2628 4.66669634,3.6805 4.66669634,4.5166 C4.66669634,5.3924 5.72519634,5.7301 6.40459634,5.9494 L7.40369634,6.2477 C9.50089634,6.8645 11.1184963,7.9189 11.1184963,10.3466 C11.1184963,11.8389 10.7592963,13.3709 9.56099634,14.3856 C8.38259634,15.3808 6.80439634,15.7989 5.28589634,15.7989 C3.39589634,15.7989 1.54529634,15.167 0.0110963369,14.1006 C0.000496336854,14.0931 -0.00330366315,14.0787 0.00319633685,14.0671 L1.66999634,10.9432 C2.64919634,11.7992 3.80769634,12.4958 5.14619634,12.4958 C6.06489634,12.4958 7.04379634,12.038 7.04379634,10.9833 C7.04379634,9.8892 5.50539634,9.5108 4.66669634,9.272 C2.20959634,8.5755 0.591896337,7.9391 0.591896337,5.0339 C0.591896337,1.9894 2.76909634,0 5.78499634,0 C7.29519634,0 9.14129634,0.4725 10.4779963,1.2214 C10.4899963,1.2279 10.4947963,1.2429 10.4879963,1.2556 L9.93159634,2.3356 Z M15.4797963,6.5063 L15.4800963,6.5063 C15.4883963,6.5063 15.4969963,6.5022 15.5010963,6.4951 C16.3390963,5.2703 17.3560963,4.855 18.7700963,4.855 C21.5266963,4.855 22.6250963,6.5861 22.6250963,9.0931 L22.6250963,13.2446 C22.6250963,14.4355 21.6561963,15.4007 20.4605963,15.4007 L19.0156963,15.4007 C19.0012963,15.4007 18.9895963,15.3894 18.9895963,15.375 L18.9895963,10.4263 C18.9895963,9.4516 19.1495963,7.74 17.3512963,7.74 C15.8733963,7.74 15.4539963,8.8344 15.4539963,10.1081 L15.4539963,13.2446 C15.4539963,14.4355 14.4847963,15.4007 13.2898963,15.4007 L11.8442963,15.4007 C11.8297963,15.4007 11.8181963,15.3894 11.8181963,15.375 L11.8181963,5.2186 C11.8181963,5.2046 11.8297963,5.193 11.8442963,5.193 L15.4278963,5.193 C15.4422963,5.193 15.4539963,5.2046 15.4539963,5.2186 L15.4539963,6.4807 C15.4539963,6.4947 15.4653963,6.5063 15.4797963,6.5063 Z M27.0707963,10.3069 C27.0707963,11.6001 27.9297963,12.5953 29.4079963,12.5953 C30.8858963,12.5953 31.7448963,11.6001 31.7448963,10.3069 C31.7448963,9.0531 30.8858963,7.999 29.4079963,7.999 C27.9297963,7.999 27.0707963,9.0531 27.0707963,10.3069 Z M33.0960963,15.4007 L31.6511963,15.4007 C31.6366963,15.4007 31.6249963,15.389 31.6249963,15.3747 L31.6249963,14.2925 C31.6249963,14.2782 31.6133963,14.2665 31.5992963,14.2665 C31.5906963,14.2665 31.5824963,14.271 31.5776963,14.2782 C30.9363963,15.285 29.6824963,15.739 28.4892963,15.739 C25.4527963,15.739 23.3150963,13.2121 23.3150963,10.2867 C23.3150963,7.3616 25.4128963,4.8546 28.4490963,4.8546 C29.6044963,4.8546 30.8171963,5.2754 31.5796963,6.1355 C31.5958963,6.1533 31.6249963,6.1427 31.6249963,6.1187 L31.6249963,5.219 C31.6249963,5.2049 31.6366963,5.193 31.6511963,5.193 L35.2347963,5.193 C35.2488963,5.193 35.2608963,5.2049 35.2608963,5.219 L35.2608963,13.2446 C35.2608963,14.4355 34.2919963,15.4007 33.0960963,15.4007 Z M39.8885963,10.3069 C39.8885963,11.6001 40.7475963,12.5953 42.2258963,12.5953 C43.7040963,12.5953 44.5627963,11.6001 44.5627963,10.3069 C44.5627963,9.0531 43.7040963,7.999 42.2258963,7.999 C40.7475963,7.999 39.8885963,9.0531 39.8885963,10.3069 Z M40.0345963,6.3473 L40.0349963,6.3473 C40.0431963,6.3473 40.0513963,6.3428 40.0558963,6.3356 C40.7170963,5.3284 41.9507963,4.8546 43.1445963,4.8546 C46.2010963,4.8546 48.3184963,7.4017 48.3184963,10.3267 C48.3184963,13.2717 46.2209963,15.739 43.1844963,15.739 C42.0087963,15.739 40.7932963,15.3233 40.0143963,14.4325 C40.0122963,14.4297 40.0081963,14.4314 40.0081963,14.4345 L40.0081963,17.5495 C40.0081963,18.7404 39.0395963,19.7055 37.8439963,19.7055 L36.3726963,19.7055 L36.3726963,5.193 L40.0081963,5.193 L40.0081963,6.3213 C40.0081963,6.3356 40.0204963,6.3473 40.0345963,6.3473 Z M52.5134963,10.3069 C52.5134963,11.6001 53.3724963,12.5953 54.8506963,12.5953 C56.3285963,12.5953 57.1875963,11.6001 57.1875963,10.3069 C57.1875963,9.0531 56.3285963,7.999 54.8506963,7.999 C53.3724963,7.999 52.5134963,9.0531 52.5134963,10.3069 Z M52.6590963,6.3473 L52.6593963,6.3473 C52.6679963,6.3473 52.6758963,6.3428 52.6806963,6.3356 C53.3418963,5.3284 54.5755963,4.8546 55.7690963,4.8546 C58.8258963,4.8546 60.9429963,7.4017 60.9429963,10.3267 C60.9429963,13.2717 58.8457963,15.739 55.8092963,15.739 C54.6535963,15.739 53.4586963,15.337 52.6782963,14.4766 C52.6621963,14.4588 52.6329963,14.4698 52.6329963,14.4937 L52.6329963,17.5495 C52.6329963,18.7404 51.6643963,19.7055 50.4688963,19.7055 L49.0232963,19.7055 C49.0091963,19.7055 48.9974963,19.6939 48.9974963,19.6798 L48.9974963,5.219 C48.9974963,5.2049 49.0091963,5.193 49.0232963,5.193 L52.6071963,5.193 C52.6216963,5.193 52.6329963,5.2049 52.6329963,5.219 L52.6329963,6.3213 C52.6329963,6.3356 52.6449963,6.3473 52.6590963,6.3473 Z M64.7412963,10.0342 L62.6691963,10.0342 L65.1561963,0.417 C65.1595963,0.4057 65.1695963,0.3975 65.1815963,0.3975 L68.9035963,0.3975 C68.9204963,0.3975 68.9327963,0.4133 68.9286963,0.43 L66.8703963,8.3911 C66.6199963,9.3586 65.7441963,10.0342 64.7412963,10.0342 Z M61.5748963,13.454 C61.5731963,12.2002 62.4304963,11.1444 63.9083963,11.1417 C65.3869963,11.1393 66.2476963,12.1926 66.2496963,13.4462 C66.2517963,14.7397 65.3941963,15.7356 63.9165963,15.7383 C62.4376963,15.7407 61.5772963,14.7469 61.5748963,13.454 Z M7.75159634,23.1807 L7.75159634,34.8983 L3.83039634,34.8983 L3.83039634,23.1807 L0.609096337,23.1807 L0.609096337,19.8724 L10.9728963,19.8724 L10.9728963,23.1807 L7.75159634,23.1807 Z M10.7527963,24.6754 L14.3737963,24.6754 L14.3737963,26.3494 C14.7605963,25.7383 15.2341963,25.27 15.7943963,24.9443 C16.3545963,24.6189 17.0077963,24.4564 17.7551963,24.4564 L18.0649963,24.4564 C18.1779963,24.4564 18.3081963,24.4694 18.4551963,24.4961 L18.4551963,27.9436 C17.9752963,27.7045 17.4546963,27.5847 16.8947963,27.5847 C16.0543963,27.5847 15.4240963,27.8338 15.0040963,28.3323 C14.5836963,28.8307 14.3737963,29.5577 14.3737963,30.5143 L14.3737963,34.8982 L10.7527963,34.8982 L10.7527963,24.6754 Z M19.2756963,34.8983 L22.8967963,34.8983 L22.8967963,24.675 L19.2756963,24.675 L19.2756963,34.8983 Z M19.0352963,20.7493 C19.0352963,20.4705 19.0884963,20.2084 19.1955963,19.9621 C19.3020963,19.7168 19.4483963,19.5009 19.6355963,19.3145 C19.8217963,19.129 20.0387963,18.9826 20.2853963,18.8765 C20.5326963,18.7701 20.7957963,18.7164 21.0760963,18.7164 C21.3559963,18.7164 21.6193963,18.7701 21.8659963,18.8765 C22.1129963,18.9826 22.3293963,19.129 22.5164963,19.3145 C22.7026963,19.5009 22.8496963,19.7168 22.9564963,19.9621 C23.0632963,20.2084 23.1168963,20.4705 23.1168963,20.7493 C23.1168963,21.0284 23.0632963,21.2912 22.9564963,21.5365 C22.8496963,21.7825 22.7026963,21.9983 22.5164963,22.1845 C22.3293963,22.3702 22.1129963,22.5167 21.8659963,22.6227 C21.6193963,22.7291 21.3559963,22.7821 21.0760963,22.7821 C20.7957963,22.7821 20.5326963,22.7291 20.2853963,22.6227 C20.0387963,22.5167 19.8217963,22.3702 19.6355963,22.1845 C19.4483963,21.9983 19.3020963,21.7825 19.1955963,21.5365 C19.0884963,21.2912 19.0352963,21.0284 19.0352963,20.7493 Z M32.3589963,29.8167 C32.3589963,29.4979 32.3022963,29.1958 32.1893963,28.9098 C32.0756963,28.6244 31.9121963,28.375 31.6988963,28.1626 C31.4855963,27.9505 31.2351963,27.7811 30.9490963,27.6545 C30.6616963,27.5283 30.3514963,27.4653 30.0183963,27.4653 C29.6982963,27.4653 29.3983963,27.5249 29.1184963,27.645 C28.8381963,27.764 28.5946963,27.9306 28.3882963,28.1427 C28.1811963,28.3555 28.0142963,28.6046 27.8881963,28.8903 C27.7610963,29.1763 27.6975963,29.4777 27.6975963,29.7969 C27.6975963,30.1161 27.7576963,30.4147 27.8778963,30.6933 C27.9980963,30.9726 28.1646963,31.2154 28.3779963,31.4211 C28.5908963,31.6271 28.8409963,31.793 29.1280963,31.9191 C29.4145963,32.0455 29.7184963,32.1088 30.0385963,32.1088 C30.3583963,32.1088 30.6588963,32.0489 30.9391963,31.9292 C31.2186963,31.8094 31.4622963,31.6435 31.6689963,31.4308 C31.8760963,31.2184 32.0423963,30.9726 32.1693963,30.6933 C32.2961963,30.4147 32.3589963,30.1226 32.3589963,29.8167 Z M27.7978963,40 L24.1767963,40 L24.1767963,24.6754 L27.7978963,24.6754 L27.7978963,25.8109 C28.5713963,24.8413 29.6247963,24.3562 30.9590963,24.3562 C31.6923963,24.3562 32.3757963,24.4995 33.0094963,24.7849 C33.6428963,25.0709 34.1930963,25.4595 34.6601963,25.9505 C35.1265963,26.4424 35.4899963,27.0206 35.7506963,27.6843 C36.0102963,28.3487 36.1407963,29.0593 36.1407963,29.8167 C36.1407963,30.5742 36.0102963,31.2783 35.7506963,31.9292 C35.4899963,32.5804 35.1299963,33.1517 34.6700963,33.643 C34.2098963,34.1347 33.6661963,34.52 33.0393963,34.7989 C32.4125963,35.0775 31.7321963,35.217 30.9988963,35.217 C29.7184963,35.217 28.6513963,34.7789 27.7978963,33.9022 L27.7978963,40 Z" id="Fill-1"></path>
        </g>
    </g>
</svg>